<?xml version="1.0" encoding="utf-8"?>
<!-- Generator: Adobe Illustrator 16.0.0, SVG Export Plug-In . SVG Version: 6.00 Build 0)  -->
<!DOCTYPE svg PUBLIC "-//W3C//DTD SVG 1.1//EN" "http://www.w3.org/Graphics/SVG/1.1/DTD/svg11.dtd">
<svg version="1.1" id="Layer_1" xmlns="http://www.w3.org/2000/svg" xmlns:xlink="http://www.w3.org/1999/xlink" x="0px" y="0px"
	 width="15px" height="30px" viewBox="0 0 15 30" enable-background="new 0 0 15 30" xml:space="preserve">
<path fill="#9B3B47" d="M10.641,14.807c-0.448,0-0.896-0.171-1.237-0.513L2.609,7.5l6.794-6.794c0.684-0.684,1.791-0.684,2.475,0
	s0.684,1.792,0,2.475L7.559,7.5l4.319,4.319c0.684,0.684,0.684,1.791,0,2.475C11.536,14.636,11.089,14.807,10.641,14.807z"/>
<g>
	<path fill="#9B3B47" d="M10.641,29.807c-0.448,0-0.896-0.17-1.237-0.512L2.609,22.5l6.794-6.793c0.684-0.684,1.791-0.684,2.475,0
		c0.684,0.683,0.684,1.792,0,2.475L7.559,22.5l4.319,4.32c0.684,0.684,0.684,1.791,0,2.475
		C11.536,29.637,11.089,29.807,10.641,29.807z"/>
	<path opacity="0.3" d="M10.641,29.807c-0.448,0-0.896-0.17-1.237-0.512L2.609,22.5l6.794-6.793c0.684-0.684,1.791-0.684,2.475,0
		c0.684,0.683,0.684,1.792,0,2.475L7.559,22.5l4.319,4.32c0.684,0.684,0.684,1.791,0,2.475
		C11.536,29.637,11.089,29.807,10.641,29.807z"/>
</g>
</svg>
