<?xml version="1.0" encoding="utf-8"?>
<!-- Generator: Adobe Illustrator 16.0.0, SVG Export Plug-In . SVG Version: 6.00 Build 0)  -->
<!DOCTYPE svg PUBLIC "-//W3C//DTD SVG 1.1//EN" "http://www.w3.org/Graphics/SVG/1.1/DTD/svg11.dtd">
<svg version="1.1" id="Layer_1" xmlns="http://www.w3.org/2000/svg" xmlns:xlink="http://www.w3.org/1999/xlink" x="0px" y="0px"
	 width="30px" height="60px" viewBox="0 0 30 60" enable-background="new 0 0 30 60" xml:space="preserve">
<g>
	<circle fill="#9B3B47" cx="15" cy="15" r="15"/>
	<g>
		<path fill="#FFFFFF" d="M5.827,14.697c0.48,0,0.873-0.19,1.178-0.571l0.627,0.649c-0.498,0.557-1.084,0.84-1.758,0.84
			c-0.676,0-1.23-0.215-1.668-0.64c-0.436-0.43-0.653-0.967-0.653-1.616s0.222-1.191,0.667-1.626
			c0.443-0.435,0.987-0.649,1.632-0.649c0.719,0,1.319,0.273,1.804,0.82l-0.606,0.688c-0.31-0.386-0.694-0.576-1.153-0.576
			c-0.367,0-0.684,0.122-0.943,0.361c-0.262,0.239-0.391,0.562-0.391,0.972c0,0.405,0.123,0.732,0.369,0.977
			C5.177,14.575,5.476,14.697,5.827,14.697z"/>
		<path fill="#FFFFFF" d="M14.711,12.637c0,0.703-0.276,1.157-0.833,1.362l1.109,1.562h-1.203l-0.971-1.396h-0.677v1.396h-0.978
			v-4.38h1.66c0.682,0,1.166,0.117,1.457,0.347S14.711,12.129,14.711,12.637z M13.532,13.159c0.123-0.112,0.183-0.283,0.183-0.518
			c0-0.239-0.062-0.4-0.188-0.488s-0.345-0.132-0.657-0.132h-0.733v1.299h0.714C13.187,13.32,13.413,13.267,13.532,13.159z"/>
		<path fill="#FFFFFF" d="M18.472,11.182h0.979v4.38h-0.979V11.182z"/>
		<path fill="#FFFFFF" d="M24.308,12.056c-0.094,0.078-0.141,0.181-0.141,0.308s0.059,0.229,0.174,0.303
			c0.113,0.078,0.379,0.166,0.795,0.269c0.415,0.103,0.737,0.254,0.968,0.459s0.344,0.503,0.344,0.898
			c0,0.391-0.146,0.708-0.44,0.952c-0.295,0.249-0.683,0.371-1.162,0.371c-0.694,0-1.318-0.259-1.873-0.771l0.582-0.718
			c0.473,0.415,0.908,0.625,1.31,0.625c0.179,0,0.32-0.039,0.423-0.117s0.153-0.186,0.153-0.312c0-0.132-0.054-0.239-0.164-0.317
			c-0.106-0.073-0.323-0.151-0.645-0.234c-0.51-0.122-0.882-0.278-1.118-0.474c-0.236-0.19-0.354-0.498-0.354-0.913
			s0.148-0.737,0.447-0.962s0.672-0.337,1.117-0.337c0.293,0,0.586,0.049,0.879,0.151c0.293,0.098,0.547,0.239,0.765,0.425
			l-0.495,0.713c-0.381-0.288-0.773-0.43-1.178-0.43C24.531,11.943,24.401,11.982,24.308,12.056z"/>
	</g>
	<path fill="#FFFFFF" d="M15,28.876C7.349,28.876,1.122,22.652,1.122,15C1.122,7.349,7.349,1.123,15,1.123S28.878,7.349,28.878,15
		C28.878,22.652,22.651,28.876,15,28.876z M15,1.401C7.501,1.401,1.399,7.5,1.399,15c0,7.5,6.102,13.599,13.601,13.599
		S28.601,22.5,28.601,15C28.601,7.5,22.499,1.401,15,1.401z"/>
	<g>
		<path fill="#9B3B47" d="M17.749,21.943l0.323,1.426c0,0-1.112,1.598-3.091,1.598H14.94c-1.939,0-3.09-1.598-3.09-1.598
			l0.322-1.426"/>
		<path fill="#FFFFFF" d="M14.981,25.107H14.94c-1.988,0-3.154-1.586-3.203-1.654c-0.023-0.029-0.033-0.074-0.022-0.113l0.323-1.426
			l0.271,0.059l-0.308,1.367c0.209,0.26,1.285,1.49,2.939,1.49h0.041c1.689,0,2.738-1.23,2.939-1.49l-0.309-1.367l0.273-0.059
			l0.322,1.426c0.008,0.039,0,0.078-0.022,0.113C18.139,23.521,17.011,25.107,14.981,25.107z"/>
	</g>
	<g>
		<polygon fill="#9B3B47" points="20.356,20.849 15,23.375 9.644,20.849 15,18.325 		"/>
		<path fill="#FFFFFF" d="M15,23.515c-0.021,0-0.04-0.004-0.059-0.014l-5.356-2.525c-0.049-0.023-0.08-0.072-0.08-0.127
			c0-0.053,0.031-0.102,0.08-0.127l5.356-2.519c0.037-0.02,0.08-0.02,0.118,0l5.356,2.519c0.048,0.025,0.079,0.074,0.079,0.127
			c0,0.055-0.031,0.104-0.079,0.127l-5.356,2.525C15.041,23.511,15.021,23.515,15,23.515z M9.972,20.849L15,23.218l5.029-2.369
			L15,18.481L9.972,20.849z"/>
	</g>
	<path fill="#FFFFFF" d="M19.202,24.57c-0.371,0-0.672-0.303-0.672-0.668c0-0.371,0.301-0.674,0.672-0.674s0.673,0.303,0.673,0.674
		C19.875,24.267,19.573,24.57,19.202,24.57z M19.202,23.505c-0.217,0-0.393,0.176-0.393,0.396c0,0.215,0.176,0.391,0.393,0.391
		c0.218,0,0.395-0.176,0.395-0.391C19.597,23.681,19.42,23.505,19.202,23.505z"/>
	<path fill="#FFFFFF" d="M19.241,26.63c-0.594,0-0.941-0.361-0.957-0.375c-0.035-0.035-0.047-0.088-0.032-0.137l0.521-1.729
		c0.012-0.039,0.039-0.068,0.074-0.084c0.037-0.02,0.076-0.02,0.115-0.004c0.049,0.023,0.1,0.033,0.15,0.033
		c0.182,0,0.326-0.121,0.326-0.127c0.036-0.029,0.086-0.039,0.129-0.029c0.047,0.016,0.082,0.049,0.098,0.094l0.559,1.748
		c0.013,0.043,0.006,0.092-0.02,0.127C20.188,26.167,19.847,26.63,19.241,26.63z M18.545,26.113c0.106,0.084,0.351,0.24,0.696,0.24
		c0.355,0,0.598-0.221,0.693-0.318l-0.48-1.504c-0.115,0.055-0.285,0.104-0.455,0.074L18.545,26.113z"/>
	<rect x="19.099" y="21.333" fill="#FFFFFF" width="0.278" height="2.031"/>
	<ellipse fill="#FFFFFF" cx="15.039" cy="20.611" rx="0.452" ry="0.381"/>
	
		<rect x="15.084" y="20.878" transform="matrix(0.9785 0.2063 -0.2063 0.9785 4.706 -3.0924)" fill="#FFFFFF" width="4.194" height="0.279"/>
</g>
<circle fill="#9B3B47" cx="15" cy="45.001" r="15"/>
<circle opacity="0.3" cx="15" cy="45.001" r="15"/>
<g>
	<path fill="#FFFFFF" d="M5.827,44.698c0.48,0,0.873-0.19,1.178-0.571l0.627,0.649c-0.498,0.557-1.084,0.84-1.758,0.84
		c-0.676,0-1.23-0.215-1.668-0.64c-0.436-0.43-0.653-0.967-0.653-1.616s0.222-1.191,0.667-1.626
		c0.443-0.435,0.987-0.649,1.632-0.649c0.719,0,1.319,0.273,1.804,0.82l-0.606,0.688c-0.31-0.386-0.694-0.576-1.153-0.576
		c-0.367,0-0.684,0.122-0.943,0.361c-0.262,0.239-0.391,0.562-0.391,0.972c0,0.405,0.123,0.732,0.369,0.977
		C5.177,44.576,5.476,44.698,5.827,44.698z"/>
	<path fill="#FFFFFF" d="M14.711,42.638c0,0.703-0.276,1.157-0.833,1.362l1.109,1.562h-1.203l-0.971-1.396h-0.677v1.396h-0.978
		v-4.38h1.66c0.682,0,1.166,0.117,1.457,0.347S14.711,42.13,14.711,42.638z M13.532,43.16c0.123-0.112,0.183-0.283,0.183-0.518
		c0-0.239-0.062-0.4-0.188-0.488s-0.345-0.132-0.657-0.132h-0.733v1.299h0.714C13.187,43.321,13.413,43.268,13.532,43.16z"/>
	<path fill="#FFFFFF" d="M18.472,41.183h0.979v4.38h-0.979V41.183z"/>
	<path fill="#FFFFFF" d="M24.308,42.057c-0.094,0.078-0.141,0.181-0.141,0.308s0.059,0.229,0.174,0.303
		c0.113,0.078,0.379,0.166,0.795,0.269c0.415,0.103,0.737,0.254,0.968,0.459s0.344,0.503,0.344,0.898
		c0,0.391-0.146,0.708-0.44,0.952c-0.295,0.249-0.683,0.371-1.162,0.371c-0.694,0-1.318-0.259-1.873-0.771l0.582-0.718
		c0.473,0.415,0.908,0.625,1.31,0.625c0.179,0,0.32-0.039,0.423-0.117s0.153-0.186,0.153-0.312c0-0.132-0.054-0.239-0.164-0.317
		c-0.106-0.073-0.323-0.151-0.645-0.234c-0.51-0.122-0.882-0.278-1.118-0.474c-0.236-0.19-0.354-0.498-0.354-0.913
		s0.148-0.737,0.447-0.962s0.672-0.337,1.117-0.337c0.293,0,0.586,0.049,0.879,0.151c0.293,0.098,0.547,0.239,0.765,0.425
		l-0.495,0.713c-0.381-0.288-0.773-0.43-1.178-0.43C24.531,41.944,24.401,41.983,24.308,42.057z"/>
</g>
<path fill="#FFFFFF" d="M15,58.877c-7.651,0-13.878-6.225-13.878-13.876S7.349,31.124,15,31.124s13.878,6.226,13.878,13.877
	S22.651,58.877,15,58.877z M15,31.402c-7.499,0-13.601,6.099-13.601,13.599C1.399,52.5,7.501,58.6,15,58.6s13.601-6.1,13.601-13.599
	C28.601,37.501,22.499,31.402,15,31.402z"/>
<g>
	<path fill="#FFFFFF" d="M14.981,55.107H14.94c-1.988,0-3.154-1.586-3.203-1.654c-0.023-0.029-0.033-0.074-0.022-0.113l0.323-1.426
		l0.271,0.059l-0.308,1.367c0.209,0.26,1.285,1.49,2.939,1.49h0.041c1.689,0,2.738-1.23,2.939-1.49l-0.309-1.367l0.273-0.059
		l0.322,1.426c0.008,0.039,0,0.078-0.022,0.113C18.139,53.521,17.011,55.107,14.981,55.107z"/>
</g>
<g>
	<path fill="#FFFFFF" d="M15,53.516c-0.021,0-0.04-0.004-0.059-0.014l-5.356-2.525c-0.049-0.023-0.08-0.072-0.08-0.127
		c0-0.053,0.031-0.102,0.08-0.127l5.356-2.519c0.037-0.02,0.08-0.02,0.118,0l5.356,2.519c0.048,0.025,0.079,0.074,0.079,0.127
		c0,0.055-0.031,0.104-0.079,0.127l-5.356,2.525C15.041,53.512,15.021,53.516,15,53.516z M9.972,50.85L15,53.219l5.029-2.369
		L15,48.482L9.972,50.85z"/>
</g>
<path fill="#FFFFFF" d="M19.202,54.57c-0.371,0-0.672-0.303-0.672-0.668c0-0.371,0.301-0.674,0.672-0.674s0.673,0.303,0.673,0.674
	C19.875,54.268,19.573,54.57,19.202,54.57z M19.202,53.506c-0.217,0-0.393,0.176-0.393,0.396c0,0.215,0.176,0.391,0.393,0.391
	c0.218,0,0.395-0.176,0.395-0.391C19.597,53.682,19.42,53.506,19.202,53.506z"/>
<path fill="#FFFFFF" d="M19.241,56.631c-0.594,0-0.941-0.361-0.957-0.375c-0.035-0.035-0.047-0.088-0.032-0.137l0.521-1.729
	c0.012-0.039,0.039-0.068,0.074-0.084c0.037-0.02,0.076-0.02,0.115-0.004c0.049,0.023,0.1,0.033,0.15,0.033
	c0.182,0,0.326-0.121,0.326-0.127c0.036-0.029,0.086-0.039,0.129-0.029c0.047,0.016,0.082,0.049,0.098,0.094l0.559,1.748
	c0.013,0.043,0.006,0.092-0.02,0.127C20.188,56.168,19.847,56.631,19.241,56.631z M18.545,56.113c0.106,0.084,0.351,0.24,0.696,0.24
	c0.355,0,0.598-0.221,0.693-0.318l-0.48-1.504c-0.115,0.055-0.285,0.104-0.455,0.074L18.545,56.113z"/>
<rect x="19.099" y="51.334" fill="#FFFFFF" width="0.278" height="2.031"/>
<ellipse fill="#FFFFFF" cx="15.039" cy="50.611" rx="0.452" ry="0.381"/>
<rect x="15.084" y="50.879" transform="matrix(0.9785 0.2063 -0.2063 0.9785 10.8956 -2.447)" fill="#FFFFFF" width="4.194" height="0.279"/>
</svg>
