<?xml version="1.0" encoding="utf-8"?>
<!-- Generator: Adobe Illustrator 16.0.0, SVG Export Plug-In . SVG Version: 6.00 Build 0)  -->
<!DOCTYPE svg PUBLIC "-//W3C//DTD SVG 1.1//EN" "http://www.w3.org/Graphics/SVG/1.1/DTD/svg11.dtd">
<svg version="1.1" id="Layer_1" xmlns="http://www.w3.org/2000/svg" xmlns:xlink="http://www.w3.org/1999/xlink" x="0px" y="0px"
	 width="30px" height="60px" viewBox="0 0 30 60" enable-background="new 0 0 30 60" xml:space="preserve">
<g>
	<path fill="#FFFFFF" d="M20.934,19.242c-1.324,1.848-3.488,3.055-5.93,3.055c-4.01,0-7.273-3.25-7.297-7.253h0.859h1.521
		l-3.789-3.775l-3.783,3.775h2h0.057h0.33c0.023,5.558,4.535,10.06,10.102,10.06c3.223,0,6.09-1.512,7.939-3.861l-0.826-0.822
		L20.934,19.242z"/>
	<path fill="#FFFFFF" d="M25.924,15.054L25.924,15.054l-0.818,0.001v-0.001c0-0.019,0-0.036,0-0.054
		c0-5.58-4.523-10.104-10.102-10.104c-3.25,0-6.139,1.535-7.986,3.918l0.861,0.858l1.15,1.146c1.32-1.882,3.506-3.115,5.975-3.115
		c4.023,0,7.297,3.273,7.297,7.297c0,0.018-0.002,0.035-0.002,0.054v0.001h-0.891v-0.001h-1.496l3.789,3.776l3.783-3.776H25.924z"/>
</g>
<g>
	<path fill="#9B3B47" d="M20.934,49.242c-1.324,1.848-3.488,3.055-5.93,3.055c-4.01,0-7.273-3.25-7.297-7.253h0.859h1.521
		l-3.789-3.775l-3.783,3.775h2h0.057h0.33c0.023,5.558,4.535,10.06,10.102,10.06c3.223,0,6.09-1.512,7.939-3.861l-0.826-0.822
		L20.934,49.242z"/>
	<path fill="#9B3B47" d="M25.924,45.054v0.002h-0.818v-0.002c0-0.018,0-0.035,0-0.053c0-5.58-4.523-10.104-10.102-10.104
		c-3.25,0-6.139,1.535-7.986,3.918l0.861,0.857l1.15,1.146c1.32-1.883,3.506-3.115,5.975-3.115c4.023,0,7.297,3.273,7.297,7.297
		c0,0.018-0.002,0.035-0.002,0.053v0.002h-0.891v-0.002h-1.496l3.789,3.776l3.783-3.776H25.924z"/>
</g>
<g opacity="0.3">
	<path d="M20.934,49.242c-1.324,1.848-3.488,3.055-5.93,3.055c-4.01,0-7.273-3.25-7.297-7.253h0.859h1.521l-3.789-3.775
		l-3.783,3.775h2h0.057h0.33c0.023,5.558,4.535,10.06,10.102,10.06c3.223,0,6.09-1.512,7.939-3.861l-0.826-0.822L20.934,49.242z"/>
	<path d="M25.924,45.054v0.002h-0.818v-0.002c0-0.018,0-0.035,0-0.053c0-5.58-4.523-10.104-10.102-10.104
		c-3.25,0-6.139,1.535-7.986,3.918l0.861,0.857l1.15,1.146c1.32-1.883,3.506-3.115,5.975-3.115c4.023,0,7.297,3.273,7.297,7.297
		c0,0.018-0.002,0.035-0.002,0.053v0.002h-0.891v-0.002h-1.496l3.789,3.776l3.783-3.776H25.924z"/>
</g>
</svg>
