<?xml version="1.0" encoding="utf-8"?>
<!-- Generator: Adobe Illustrator 16.0.0, SVG Export Plug-In . SVG Version: 6.00 Build 0)  -->
<!DOCTYPE svg PUBLIC "-//W3C//DTD SVG 1.1//EN" "http://www.w3.org/Graphics/SVG/1.1/DTD/svg11.dtd">
<svg version="1.1" id="Layer_1" xmlns="http://www.w3.org/2000/svg" xmlns:xlink="http://www.w3.org/1999/xlink" x="0px" y="0px"
	 width="30px" height="60px" viewBox="0 0 30 60" enable-background="new 0 0 30 60" xml:space="preserve">
<g>
	<g>
		<g>
			<path fill="#9B3B47" d="M14.999,5.517L14.999,5.517L15,0.375h-0.001c-5.368,0-10.057,2.917-12.562,7.254l4.453,2.569
				C8.509,7.4,11.533,5.517,14.999,5.517z"/>
			<path fill="#E7E8E8" d="M7.028,10.71L1.925,7.766l0.188-0.325C4.764,2.852,9.702,0,14.999,0h0.375l0.001,5.892H15
				c-3.198,0-6.182,1.722-7.785,4.495L7.028,10.71z M2.954,7.494L6.76,9.69c1.71-2.709,4.667-4.417,7.864-4.541l0.001-4.394
				C9.862,0.882,5.448,3.431,2.954,7.494z"/>
		</g>
		<g>
			<path fill="#9B3B47" d="M23.107,10.198l4.454-2.569C25.056,3.292,20.367,0.375,15,0.375v5.142
				C18.465,5.517,21.49,7.4,23.107,10.198z"/>
			<path fill="#E7E8E8" d="M22.971,10.71l-0.188-0.325C21.181,7.614,18.198,5.892,15,5.892h-0.375V0H15
				c5.297,0,10.234,2.852,12.886,7.441l0.188,0.325L22.971,10.71z M15.375,5.149c3.197,0.125,6.154,1.832,7.863,4.541l3.807-2.196
				c-2.495-4.063-6.908-6.612-11.67-6.739V5.149z"/>
		</g>
		<g>
			<path fill="#9B3B47" d="M5.641,14.875c0-1.705,0.455-3.299,1.25-4.676L2.438,7.629C1.204,9.763,0.5,12.236,0.5,14.875
				c0,2.641,0.704,5.113,1.938,7.244l4.453-2.568C6.096,18.175,5.641,16.578,5.641,14.875z"/>
			<path fill="#E7E8E8" d="M2.301,22.63l-0.188-0.323c-1.3-2.247-1.988-4.817-1.988-7.433c0-2.613,0.688-5.184,1.988-7.433
				L2.3,7.117l5.103,2.944l-0.188,0.325c-0.785,1.359-1.2,2.913-1.2,4.489c0,1.58,0.415,3.131,1.2,4.487l0.188,0.325L2.301,22.63z
				 M2.579,8.144c-1.116,2.056-1.704,4.375-1.704,6.731c0,2.357,0.588,4.676,1.704,6.73l3.806-2.195
				c-0.733-1.391-1.119-2.95-1.119-4.535c0-1.582,0.386-3.143,1.119-4.535L2.579,8.144z"/>
		</g>
		<g>
			<path fill="#9B3B47" d="M27.562,7.629l-4.454,2.569c0.796,1.377,1.252,2.971,1.252,4.676c0,1.703-0.456,3.301-1.252,4.676
				l4.454,2.568c1.232-2.131,1.938-4.604,1.938-7.244C29.5,12.236,28.794,9.763,27.562,7.629z"/>
			<path fill="#E7E8E8" d="M27.698,22.631l-5.104-2.944l0.188-0.325c0.786-1.356,1.201-2.908,1.201-4.487
				c0-1.576-0.415-3.128-1.201-4.489l-0.188-0.325l5.104-2.944l0.188,0.325c1.301,2.252,1.988,4.824,1.988,7.433
				c0,2.613-0.688,5.183-1.989,7.433L27.698,22.631z M23.614,19.41l3.806,2.195c1.116-2.057,1.705-4.375,1.705-6.73
				c0-2.354-0.589-4.672-1.705-6.731l-3.807,2.196c0.734,1.393,1.121,2.953,1.121,4.535C24.734,16.458,24.348,18.019,23.614,19.41z"
				/>
		</g>
		<g>
			<path fill="#9B3B47" d="M15,24.234v5.141c5.367,0,10.056-2.918,12.562-7.256l-4.454-2.568C21.49,22.349,18.465,24.234,15,24.234z
				"/>
			<path fill="#E7E8E8" d="M15,29.75h-0.375v-5.891H15c3.198,0,6.181-1.723,7.782-4.496l0.188-0.325l5.104,2.944l-0.188,0.324
				C25.234,26.898,20.296,29.75,15,29.75z M15.375,24.602v4.394c4.762-0.129,9.175-2.678,11.67-6.742l-3.807-2.195
				C21.529,22.769,18.572,24.478,15.375,24.602z"/>
		</g>
		<g>
			<path fill="#9B3B47" d="M14.999,24.234c-3.466,0-6.49-1.885-8.108-4.684l-4.453,2.568c2.505,4.338,7.193,7.256,12.562,7.256H15
				L14.999,24.234L14.999,24.234z"/>
			<path fill="#E7E8E8" d="M15.375,29.75H15c-5.298,0-10.236-2.852-12.887-7.443l-0.188-0.324l5.103-2.944l0.188,0.325
				c1.603,2.773,4.586,4.496,7.784,4.496h0.375L15.375,29.75z M2.954,22.253c2.494,4.064,6.908,6.614,11.671,6.742v-4.394
				c-3.198-0.124-6.155-1.833-7.865-4.544L2.954,22.253z"/>
		</g>
	</g>
</g>
<path fill="#9B3B47" d="M14.999,35.767L14.999,35.767L15,30.625h-0.001c-5.368,0-10.057,2.917-12.562,7.254l4.453,2.568
	C8.509,37.651,11.533,35.767,14.999,35.767z"/>
<path fill="#9B3B47" d="M23.107,40.448l4.454-2.568c-2.506-4.338-7.194-7.254-12.562-7.254v5.141
	C18.465,35.767,21.49,37.651,23.107,40.448z"/>
<path fill="#9B3B47" d="M5.641,45.125c0-1.705,0.455-3.3,1.25-4.677L2.438,37.88C1.204,40.013,0.5,42.486,0.5,45.125
	c0,2.641,0.704,5.113,1.938,7.244l4.453-2.568C6.096,48.426,5.641,46.828,5.641,45.125z"/>
<path fill="#9B3B47" d="M27.562,37.88l-4.454,2.568c0.796,1.377,1.252,2.972,1.252,4.677c0,1.703-0.456,3.301-1.252,4.676
	l4.454,2.568c1.232-2.131,1.938-4.604,1.938-7.244C29.5,42.486,28.794,40.013,27.562,37.88z"/>
<path fill="#9B3B47" d="M15,54.484v5.141c5.367,0,10.056-2.918,12.562-7.256l-4.454-2.568C21.49,52.6,18.465,54.484,15,54.484z"/>
<path fill="#9B3B47" d="M14.999,54.484c-3.466,0-6.49-1.885-8.108-4.684l-4.453,2.568c2.505,4.338,7.193,7.256,12.562,7.256H15
	L14.999,54.484L14.999,54.484z"/>
<path opacity="0.3" d="M14.999,35.767L14.999,35.767L15,30.625h-0.001c-5.368,0-10.057,2.917-12.562,7.254l4.453,2.568
	C8.509,37.651,11.533,35.767,14.999,35.767z"/>
<path opacity="0.3" d="M23.107,40.448l4.454-2.568c-2.506-4.338-7.194-7.254-12.562-7.254v5.141
	C18.465,35.767,21.49,37.651,23.107,40.448z"/>
<path opacity="0.3" d="M5.641,45.125c0-1.705,0.455-3.3,1.25-4.677L2.438,37.88C1.204,40.013,0.5,42.486,0.5,45.125
	c0,2.641,0.704,5.113,1.938,7.244l4.453-2.568C6.096,48.426,5.641,46.828,5.641,45.125z"/>
<path opacity="0.3" d="M27.562,37.88l-4.454,2.568c0.796,1.377,1.252,2.972,1.252,4.677c0,1.703-0.456,3.301-1.252,4.676
	l4.454,2.568c1.232-2.131,1.938-4.604,1.938-7.244C29.5,42.486,28.794,40.013,27.562,37.88z"/>
<path opacity="0.3" d="M15,54.484v5.141c5.367,0,10.056-2.918,12.562-7.256l-4.454-2.568C21.49,52.6,18.465,54.484,15,54.484z"/>
<path opacity="0.3" d="M14.999,54.484c-3.466,0-6.49-1.885-8.108-4.684l-4.453,2.568c2.505,4.338,7.193,7.256,12.562,7.256H15
	L14.999,54.484L14.999,54.484z"/>
<path fill="#E7E8E8" d="M28.063,52.227c1.182-2.171,1.812-4.614,1.812-7.102c0-2.484-0.63-4.93-1.812-7.103l0.011-0.006
	l-0.177-0.304c-0.004-0.007-0.007-0.014-0.011-0.021l-0.188-0.325l-0.012,0.007c-2.628-4.294-7.284-6.983-12.313-7.111V30.25H15
	h-0.001h-0.374v0.013c-5.029,0.128-9.686,2.817-12.313,7.111L2.3,37.367l-0.188,0.325l-0.188,0.324l0.011,0.006
	c-1.181,2.17-1.811,4.615-1.811,7.103c0,2.489,0.629,4.934,1.811,7.102l-0.01,0.006l0.181,0.312
	c0.002,0.004,0.004,0.009,0.007,0.013l0.188,0.323l0.01-0.006c2.628,4.295,7.285,6.984,12.314,7.112V60H15h0.375v-0.013
	c5.027-0.128,9.685-2.817,12.312-7.112l0.011,0.007l0.188-0.324c0.002-0.004,0.004-0.008,0.007-0.013l0.182-0.312L28.063,52.227z
	 M29.125,45.125c0,2.355-0.589,4.674-1.705,6.73l-3.806-2.195c0.733-1.391,1.12-2.951,1.12-4.535c0-1.582-0.387-3.142-1.121-4.535
	l3.807-2.196C28.536,40.453,29.125,42.771,29.125,45.125z M15.375,31.006c4.762,0.127,9.175,2.676,11.67,6.739l-3.807,2.195
	c-1.709-2.709-4.666-4.416-7.863-4.541V31.006z M14.625,31.006l-0.001,4.394c-3.197,0.125-6.154,1.832-7.864,4.541l-0.127-0.073
	l-3.678-2.123C5.449,33.682,9.862,31.133,14.625,31.006z M0.875,45.125c0-2.355,0.588-4.675,1.704-6.731l3.806,2.196
	c-0.733,1.393-1.119,2.953-1.119,4.535c0,1.585,0.386,3.145,1.118,4.534l-3.805,2.196C1.463,49.801,0.875,47.482,0.875,45.125z
	 M2.954,52.504l3.806-2.195c1.71,2.711,4.667,4.42,7.865,4.544v4.394C9.862,59.118,5.448,56.568,2.954,52.504z M14.999,54.109
	c-3.195,0-6.176-1.721-7.78-4.49l-0.004-0.007c-0.785-1.356-1.2-2.907-1.2-4.487c0-1.574,0.414-3.125,1.196-4.482l0.003-0.006
	c1.603-2.772,4.586-4.495,7.785-4.495s6.181,1.723,7.783,4.494c0.786,1.361,1.201,2.913,1.201,4.489
	c0,1.577-0.414,3.127-1.198,4.482l-0.004,0.006C21.181,52.387,18.198,54.109,14.999,54.109L14.999,54.109z M15.375,59.246v-4.394
	c3.197-0.124,6.154-1.833,7.863-4.544l3.807,2.196C24.55,56.568,20.137,59.117,15.375,59.246z"/>
</svg>
